# This file uses centimeters as units for non-parametric coordinates.

g default
v 4.975834 0.076072 -1.616777
v 4.232750 0.076072 -3.075270
v 3.075269 0.076072 -4.232752
v 1.616776 0.076072 -4.975836
v -0.000000 0.076072 -5.231956
v -1.616777 0.076072 -4.975836
v -3.075270 0.076072 -4.232752
v -4.232752 0.076072 -3.075270
v -4.975836 0.076072 -1.616777
v -5.231956 0.076072 -0.000000
v -4.975836 0.076072 1.616775
v -4.232752 0.076072 3.075268
v -3.075270 0.076072 4.232750
v -1.616777 0.076071 4.975834
v -0.000000 0.076072 5.231955
v 1.616736 0.076072 4.975834
v 3.075269 0.076072 4.232750
v 4.232750 0.076072 3.075268
v 4.975834 0.076072 1.616775
v 5.231955 0.076072 -0.000000
v 4.975834 1.057705 -1.616777
v 4.232750 1.057705 -3.075270
v 3.075269 1.057705 -4.232752
v 1.616776 1.057705 -4.975836
v -0.000000 1.057705 -5.231956
v -1.616777 1.057705 -4.975836
v -3.075270 1.057705 -4.232752
v -4.232752 1.057705 -3.075270
v -4.975836 1.057705 -1.616777
v -5.231956 1.057705 -0.000000
v -4.975836 1.057705 1.616775
v -4.232752 1.057705 3.075268
v -3.075270 1.057705 4.232750
v -1.616777 1.057705 4.975834
v -0.000000 1.057705 5.231955
v 1.616736 1.057705 4.975834
v 3.075269 1.057705 4.232750
v 4.232750 1.057705 3.075268
v 4.975834 1.057705 1.616775
v 5.231955 1.057705 -0.000000
v -0.000000 0.076072 -0.000000
v -0.000000 1.057705 -0.000000
v 6.955585 0.076072 -2.260004
v 5.916773 0.076072 -4.298788
v 5.916773 1.057705 -4.298788
v 6.955585 1.057705 -2.260004
v 4.298787 0.076072 -5.916773
v 4.298787 1.057705 -5.916773
v 2.260006 0.076072 -6.955583
v 2.260006 1.057705 -6.955583
v -0.000000 0.076072 -7.313533
v -0.000000 1.057705 -7.313533
v -2.260007 0.076072 -6.955583
v -2.260007 1.057705 -6.955583
v -4.298787 0.076072 -5.916772
v -4.298787 1.057705 -5.916772
v -5.916772 0.076072 -4.298786
v -5.916772 1.057705 -4.298786
v -6.955582 0.076072 -2.260006
v -6.955582 1.057705 -2.260006
v -7.313532 0.076072 0.000000
v -7.313532 1.057705 0.000000
v -6.955582 0.076072 2.260006
v -6.955582 1.057705 2.260006
v -5.916771 0.076072 4.298786
v -5.916771 1.057705 4.298786
v -4.298786 0.076072 5.916771
v -4.298786 1.057705 5.916771
v -2.260006 0.076072 6.955581
v -2.260006 1.057705 6.955581
v 2.260005 0.076072 6.955581
v 2.260005 1.057705 6.955581
v 4.298785 0.076072 5.916771
v 4.298785 1.057705 5.916771
v 5.916771 0.076072 4.298785
v 5.916771 1.057705 4.298785
v 6.955581 0.076072 2.260006
v 6.955581 1.057705 2.260006
v 7.313531 0.076072 0.000002
v 7.313531 1.057705 0.000002
vt 0.648603 0.107966
vt 0.626409 0.064408
vt 0.591842 0.029841
vt 0.548284 0.007647
vt 0.500000 -0.000000
vt 0.451716 0.007647
vt 0.408159 0.029841
vt 0.373591 0.064409
vt 0.351397 0.107966
vt 0.343750 0.156250
vt 0.351397 0.204534
vt 0.373591 0.248091
vt 0.408159 0.282659
vt 0.451716 0.304853
vt 0.500000 0.312500
vt 0.548284 0.304853
vt 0.591841 0.282659
vt 0.626409 0.248091
vt 0.648603 0.204534
vt 0.656250 0.156250
vt 0.375000 0.312500
vt 0.387500 0.312500
vt 0.400000 0.312500
vt 0.412500 0.312500
vt 0.425000 0.312500
vt 0.437500 0.312500
vt 0.450000 0.312500
vt 0.462500 0.312500
vt 0.475000 0.312500
vt 0.487500 0.312500
vt 0.500000 0.312500
vt 0.512500 0.312500
vt 0.525000 0.312500
vt 0.537500 0.312500
vt 0.562500 0.312500
vt 0.575000 0.312500
vt 0.587500 0.312500
vt 0.600000 0.312500
vt 0.612500 0.312500
vt 0.625000 0.312500
vt 0.375000 0.688440
vt 0.387500 0.688440
vt 0.400000 0.688440
vt 0.412500 0.688440
vt 0.425000 0.688440
vt 0.437500 0.688440
vt 0.450000 0.688440
vt 0.462500 0.688440
vt 0.475000 0.688440
vt 0.487500 0.688440
vt 0.500000 0.688440
vt 0.512500 0.688440
vt 0.525000 0.688440
vt 0.537500 0.688440
vt 0.562500 0.688440
vt 0.575000 0.688440
vt 0.587500 0.688440
vt 0.600000 0.688440
vt 0.612500 0.688440
vt 0.625000 0.688440
vt 0.648603 0.795466
vt 0.626409 0.751908
vt 0.591842 0.717341
vt 0.548284 0.695147
vt 0.500000 0.687500
vt 0.451716 0.695147
vt 0.408159 0.717341
vt 0.373591 0.751909
vt 0.351397 0.795466
vt 0.343750 0.843750
vt 0.351397 0.892034
vt 0.373591 0.935591
vt 0.408159 0.970159
vt 0.451716 0.992353
vt 0.500000 1.000000
vt 0.548284 0.992353
vt 0.591841 0.970159
vt 0.626409 0.935591
vt 0.648603 0.892034
vt 0.656250 0.843750
vt 0.500000 0.150000
vt 0.500000 0.837500
vt 0.375000 0.312500
vt 0.387500 0.312500
vt 0.387500 0.688440
vt 0.375000 0.688440
vt 0.400000 0.312500
vt 0.400000 0.688440
vt 0.412500 0.312500
vt 0.412500 0.688440
vt 0.425000 0.312500
vt 0.425000 0.688440
vt 0.437500 0.312500
vt 0.437500 0.688440
vt 0.450000 0.312500
vt 0.450000 0.688440
vt 0.462500 0.312500
vt 0.462500 0.688440
vt 0.475000 0.312500
vt 0.475000 0.688440
vt 0.487500 0.312500
vt 0.487500 0.688440
vt 0.500000 0.312500
vt 0.500000 0.688440
vt 0.512500 0.312500
vt 0.512500 0.688440
vt 0.525000 0.312500
vt 0.525000 0.688440
vt 0.537500 0.312500
vt 0.537500 0.688440
vt 0.562500 0.312500
vt 0.562500 0.688440
vt 0.575000 0.312500
vt 0.575000 0.688440
vt 0.587500 0.312500
vt 0.587500 0.688440
vt 0.600000 0.312500
vt 0.600000 0.688440
vt 0.612500 0.312500
vt 0.612500 0.688440
vt 0.625000 0.312500
vt 0.625000 0.688440
vt 0.000000 0.000000
vt 1.000000 0.000000
vt 1.000000 1.000000
vt 0.000000 1.000000
vt 0.000000 0.000000
vt 1.000000 0.000000
vt 1.000000 1.000000
vt 0.000000 1.000000
vt 0.000000 0.000000
vt 1.000000 0.000000
vt 1.000000 1.000000
vt 0.000000 1.000000
vt 0.000000 0.000000
vt 1.000000 0.000000
vt 1.000000 1.000000
vt 0.000000 1.000000
vn 0.951057 0.000000 -0.309016
vn 0.809017 0.000000 -0.587785
vn 0.809017 0.000000 -0.587785
vn 0.951057 0.000000 -0.309016
vn 0.587785 0.000000 -0.809017
vn 0.587785 0.000000 -0.809017
vn 0.309017 0.000000 -0.951057
vn 0.309017 0.000000 -0.951057
vn 0.000000 0.000000 -1.000000
vn 0.000000 0.000000 -1.000000
vn -0.309017 0.000000 -0.951056
vn -0.309017 0.000000 -0.951056
vn -0.587786 0.000000 -0.809017
vn -0.587786 0.000000 -0.809017
vn -0.809017 0.000000 -0.587785
vn -0.809017 0.000000 -0.587785
vn -0.951057 0.000000 -0.309017
vn -0.951057 0.000000 -0.309017
vn -1.000000 0.000000 0.000000
vn -1.000000 0.000000 0.000000
vn -0.951056 0.000000 0.309017
vn -0.951056 0.000000 0.309017
vn -0.809017 0.000000 0.587785
vn -0.809017 0.000000 0.587785
vn -0.587785 0.000000 0.809017
vn -0.587785 0.000000 0.809017
vn -0.453991 0.000000 0.891006
vn -0.453991 0.000000 0.891006
vn 0.453991 0.000000 0.891006
vn 0.587785 0.000000 0.809017
vn 0.587785 0.000000 0.809017
vn 0.453991 0.000000 0.891006
vn 0.809017 0.000000 0.587785
vn 0.809017 0.000000 0.587785
vn 0.951056 0.000000 0.309017
vn 0.951056 0.000000 0.309017
vn 1.000000 0.000000 0.000001
vn 1.000000 0.000000 0.000001
vn 0.000000 -1.000000 0.000000
vn 0.000000 -1.000000 -0.000000
vn 0.000000 -1.000000 -0.000000
vn 0.000000 -1.000000 0.000000
vn 0.000000 -1.000000 -0.000000
vn 0.000000 -1.000000 -0.000000
vn 0.000000 -1.000000 -0.000000
vn 0.000000 -1.000000 -0.000000
vn 0.000000 -1.000000 0.000000
vn 0.000000 -1.000000 0.000000
vn 0.000000 -1.000000 0.000000
vn 0.000000 -1.000000 0.000000
vn 0.000000 -1.000000 -0.000000
vn -0.000000 -1.000000 -0.000000
vn -0.000000 -1.000000 -0.000000
vn 0.000000 -1.000000 0.000000
vn -0.000000 -1.000000 0.000000
vn -0.000000 -1.000000 0.000000
vn 0.000000 -1.000000 -0.000000
vn 0.000000 -1.000000 0.000000
vn 0.000000 -1.000000 -0.000000
vn 0.000000 1.000000 0.000000
vn 0.000000 1.000000 0.000000
vn 0.000000 1.000000 -0.000000
vn 0.000000 1.000000 0.000000
vn 0.000000 1.000000 0.000000
vn 0.000000 1.000000 0.000000
vn 0.000000 1.000000 0.000000
vn 0.000000 1.000000 0.000000
vn 0.000000 1.000000 0.000000
vn 0.000000 1.000000 0.000000
vn 0.000000 1.000000 0.000000
vn 0.000000 1.000000 0.000000
vn 0.000000 1.000000 0.000000
vn 0.000000 1.000000 0.000000
vn 0.000000 1.000000 0.000000
vn 0.000000 1.000000 -0.000000
vn 0.000000 1.000000 -0.000000
vn 0.000000 1.000000 0.000000
vn 0.000000 1.000000 0.000000
vn 0.000000 1.000000 0.000000
vn 0.000000 1.000000 0.000000
vn 0.000000 -1.000000 0.000000
vn 0.000000 -1.000000 -0.000000
vn 0.000000 1.000000 0.000000
vn 0.000000 1.000000 0.000000
vn 0.000000 -1.000000 0.000000
vn 0.000000 1.000000 0.000000
vn 0.000000 -1.000000 0.000000
vn 0.000000 1.000000 0.000000
vn 0.000000 -1.000000 -0.000000
vn 0.000000 1.000000 0.000000
vn 0.000000 -1.000000 0.000000
vn 0.000000 1.000000 0.000000
vn 0.000000 -1.000000 0.000000
vn 0.000000 1.000000 0.000000
vn 0.000000 -1.000000 0.000000
vn 0.000000 1.000000 0.000000
vn 0.000000 -1.000000 -0.000000
vn 0.000000 1.000000 0.000000
vn 0.000000 -1.000000 0.000000
vn 0.000000 1.000000 0.000000
vn 0.000000 -1.000000 0.000000
vn 0.000000 1.000000 0.000000
vn 0.000000 -1.000000 0.000000
vn 0.000000 1.000000 0.000000
vn -0.000000 -1.000000 0.000000
vn 0.000000 1.000000 0.000000
vn -0.000000 -1.000000 0.000000
vn 0.000000 1.000000 0.000000
vn -0.000000 -1.000000 -0.000000
vn -0.000000 -1.000000 0.000000
vn 0.000000 1.000000 0.000000
vn 0.000000 1.000000 0.000000
vn 0.000000 -1.000000 -0.000000
vn 0.000000 1.000000 0.000000
vn 0.000000 -1.000000 0.000000
vn 0.000000 1.000000 0.000000
vn 0.000000 -1.000000 -0.000000
vn 0.000000 1.000000 0.000000
vn 0.951061 0.000000 0.309004
vn 0.951061 0.000000 0.309004
vn 0.951061 0.000000 0.309004
vn 0.951061 0.000000 0.309004
vn -0.156463 0.000000 0.987684
vn -0.156463 0.000000 0.987684
vn -0.156463 0.000000 0.987684
vn -0.156463 0.000000 0.987684
vn 0.156467 0.000000 0.987683
vn 0.156467 0.000000 0.987683
vn 0.156467 0.000000 0.987683
vn 0.156467 0.000000 0.987683
vn -0.951055 0.000000 0.309022
vn -0.951055 0.000000 0.309022
vn -0.951055 0.000000 0.309022
vn -0.951055 0.000000 0.309022
s 1
g pCylinder1
f 43/83/1 44/84/2 45/85/3 46/86/4
f 44/84/2 47/87/5 48/88/6 45/85/3
f 47/87/5 49/89/7 50/90/8 48/88/6
f 49/89/7 51/91/9 52/92/10 50/90/8
f 51/91/9 53/93/11 54/94/12 52/92/10
f 53/93/11 55/95/13 56/96/14 54/94/12
f 55/95/13 57/97/15 58/98/16 56/96/14
f 57/97/15 59/99/17 60/100/18 58/98/16
f 59/99/17 61/101/19 62/102/20 60/100/18
f 61/101/19 63/103/21 64/104/22 62/102/20
f 63/103/21 65/105/23 66/106/24 64/104/22
f 65/105/23 67/107/25 68/108/26 66/106/24
f 67/107/25 69/109/27 70/110/28 68/108/26
f 71/111/29 73/113/30 74/114/31 72/112/32
f 73/113/30 75/115/33 76/116/34 74/114/31
f 75/115/33 77/117/35 78/118/36 76/116/34
f 77/117/35 79/119/37 80/120/38 78/118/36
f 79/119/37 43/121/1 46/122/4 80/120/38
s 3
f 2/2/39 1/1/40 41/81/41
f 3/3/42 2/2/39 41/81/41
f 4/4/43 3/3/42 41/81/41
f 5/5/44 4/4/43 41/81/41
f 6/6/45 5/5/44 41/81/41
f 7/7/46 6/6/45 41/81/41
f 8/8/47 7/7/46 41/81/41
f 9/9/48 8/8/47 41/81/41
f 10/10/49 9/9/48 41/81/41
f 11/11/50 10/10/49 41/81/41
f 12/12/51 11/11/50 41/81/41
f 13/13/52 12/12/51 41/81/41
f 14/14/53 13/13/52 41/81/41
f 15/15/54 14/14/53 41/81/41
f 16/16/55 15/15/54 41/81/41
f 17/17/56 16/16/55 41/81/41
f 18/18/57 17/17/56 41/81/41
f 19/19/58 18/18/57 41/81/41
f 20/20/59 19/19/58 41/81/41
f 1/1/40 20/20/59 41/81/41
s 4
f 21/79/60 22/78/61 42/82/62
f 22/78/61 23/77/63 42/82/62
f 23/77/63 24/76/64 42/82/62
f 24/76/64 25/75/65 42/82/62
f 25/75/65 26/74/66 42/82/62
f 26/74/66 27/73/67 42/82/62
f 27/73/67 28/72/68 42/82/62
f 28/72/68 29/71/69 42/82/62
f 29/71/69 30/70/70 42/82/62
f 30/70/70 31/69/71 42/82/62
f 31/69/71 32/68/72 42/82/62
f 32/68/72 33/67/73 42/82/62
f 33/67/73 34/66/74 42/82/62
f 34/66/74 35/65/75 42/82/62
f 35/65/75 36/64/76 42/82/62
f 36/64/76 37/63/77 42/82/62
f 37/63/77 38/62/78 42/82/62
f 38/62/78 39/61/79 42/82/62
f 39/61/79 40/80/80 42/82/62
f 40/80/80 21/79/60 42/82/62
s 3
f 1/21/40 2/22/39 44/84/81 43/83/82
s 4
f 22/42/61 21/41/60 46/86/83 45/85/84
s 3
f 2/22/39 3/23/42 47/87/85 44/84/81
s 4
f 23/43/63 22/42/61 45/85/84 48/88/86
s 3
f 3/23/42 4/24/43 49/89/87 47/87/85
s 4
f 24/44/64 23/43/63 48/88/86 50/90/88
s 3
f 4/24/43 5/25/44 51/91/89 49/89/87
s 4
f 25/45/65 24/44/64 50/90/88 52/92/90
s 3
f 5/25/44 6/26/45 53/93/91 51/91/89
s 4
f 26/46/66 25/45/65 52/92/90 54/94/92
s 3
f 6/26/45 7/27/46 55/95/93 53/93/91
s 4
f 27/47/67 26/46/66 54/94/92 56/96/94
s 3
f 7/27/46 8/28/47 57/97/95 55/95/93
s 4
f 28/48/68 27/47/67 56/96/94 58/98/96
s 3
f 8/28/47 9/29/48 59/99/97 57/97/95
s 4
f 29/49/69 28/48/68 58/98/96 60/100/98
s 3
f 9/29/48 10/30/49 61/101/99 59/99/97
s 4
f 30/50/70 29/49/69 60/100/98 62/102/100
s 3
f 10/30/49 11/31/50 63/103/101 61/101/99
s 4
f 31/51/71 30/50/70 62/102/100 64/104/102
s 3
f 11/31/50 12/32/51 65/105/103 63/103/101
s 4
f 32/52/72 31/51/71 64/104/102 66/106/104
s 3
f 12/32/51 13/33/52 67/107/105 65/105/103
s 4
f 33/53/73 32/52/72 66/106/104 68/108/106
s 3
f 13/33/52 14/34/53 69/109/107 67/107/105
s 4
f 34/54/74 33/53/73 68/108/106 70/110/108
s 3
f 16/35/55 17/36/56 73/113/109 71/111/110
s 4
f 37/56/77 36/55/76 72/112/111 74/114/112
s 3
f 17/36/56 18/37/57 75/115/113 73/113/109
s 4
f 38/57/78 37/56/77 74/114/112 76/116/114
s 3
f 18/37/57 19/38/58 77/117/115 75/115/113
s 4
f 39/58/79 38/57/78 76/116/114 78/118/116
s 3
f 19/38/58 20/39/59 79/119/117 77/117/115
s 4
f 40/59/80 39/58/79 78/118/116 80/120/118
s 3
f 20/39/59 1/40/40 43/121/82 79/119/117
s 4
f 21/60/60 40/59/80 80/120/118 46/122/83
s off
f 34/123/119 70/124/120 69/125/121 14/126/122
f 35/127/123 34/128/124 14/129/125 15/130/126
f 36/131/127 35/132/128 15/133/129 16/134/130
f 72/135/131 36/136/132 16/137/133 71/138/134
